<?xml version="1.0" encoding="utf-8"?>
<!-- Svg Vector Icons : http://www.onlinewebfonts.com/icon -->
<!DOCTYPE svg PUBLIC "-//W3C//DTD SVG 1.1//EN" "http://www.w3.org/Graphics/SVG/1.1/DTD/svg11.dtd">
<svg version="1.1" xmlns="http://www.w3.org/2000/svg" xmlns:xlink="http://www.w3.org/1999/xlink" x="0px" y="0px" viewBox="0 0 256 256" enable-background="new 0 0 256 256" xml:space="preserve">
<metadata> Svg Vector Icons : http://www.onlinewebfonts.com/icon </metadata>
<g><g><path fill="#000000" d="M128,246c-65.1,0-118-52.9-118-118C10,62.9,62.9,10,128,10c65.1,0,118,52.9,118,118C246,193.1,193.1,246,128,246z M128,21C69,21,21,69,21,128s48,107,107,107c59,0,107-48,107-107S187,21,128,21z M141.3,80.7c-8,0-14.6-6.5-14.6-14.6c0-8,6.5-14.6,14.6-14.6s14.6,6.5,14.6,14.6C155.9,74.2,149.3,80.7,141.3,80.7z M104.6,106.3c0-1.2,0-2.4,0-3.6c11.6-4.6,29.4-2.9,41.3-7.1c0.5,0,0.9,0,1.4,0c-5.8,29.2-17.9,55.7-20.7,85.5c0.6,0.5,0.6,0.4,1.4,0.7c9,3,14.1-17.8,19.9-16.4c5.9,1.4-3.7,11.8-5,13.5c-5.2,6.8-15.2,18.4-27.1,18.5c-8.4,0-17-5.2-15.7-19.2c1.4-14,9.2-33.5,13.5-49.2C117.3,116.5,121.8,105.9,104.6,106.3z"/></g></g>
</svg>